<?xml version="1.0" encoding="utf-8"?>
<!-- Generator: Adobe Illustrator 24.2.0, SVG Export Plug-In . SVG Version: 6.00 Build 0)  -->
<svg version="1.1" id="Ebene_1" xmlns="http://www.w3.org/2000/svg" xmlns:xlink="http://www.w3.org/1999/xlink" x="0px" y="0px"
	 viewBox="0 0 200 230" style="enable-background:new 0 0 200 230;" xml:space="preserve">
<style type="text/css">
	.st0{fill:#2A434C;}
	.st1{fill:#E5BC80;}
</style>
<g>
	<g>
		<path class="st0" d="M59.7,1.6h-1.1L11.9,37.4c6.2,20.8,11.6,46.9,8.2,77.1c-3,27-7.1,54.6-17.7,80.9c38.3,7.3,69.5,18.6,97.6,33
			c28.1-14.5,59.3-25.7,97.6-33c-10.6-26.4-14.8-53.9-17.7-80.9c-3.3-30.2,2-56.2,8.2-77.1L141.3,1.6h-1.1
			c-12.3,1-25.9,1.6-40.3,1.6C85.7,3.2,72.1,2.6,59.7,1.6z"/>
	</g>
	<g>
		<g>
			<g>
				<g>
					<path class="st1" d="M119.4,103.4c0.8,0,1.2-0.3,1.4-0.6c0.2-0.3-0.1-0.6-0.4-0.7c-0.3-0.1-2.5-0.3-3.1-0.3
						c-0.5,0-1.3,0.1-1.5,0.6C115.2,103.3,118.6,103.4,119.4,103.4z"/>
				</g>
				<g>
					<path class="st1" d="M119.4,105.8c0.8,0,1.2-0.4,1.3-0.8c0.2-0.3-0.2-0.5-0.5-0.7c-0.3-0.1-2.5-0.1-3.1,0
						c-0.5,0-1.3,0.2-1.5,0.7C115.3,106.1,118.7,105.8,119.4,105.8z"/>
				</g>
				<g>
					<path class="st1" d="M119.4,106.3c-0.6,0-2.8,0-3.2,0.2c-0.3,0.1-0.6,0.4-0.4,0.7c0.2,0.3,0.6,0.7,1.4,0.7
						c0.8,0,4.2,0.1,3.7-0.9C120.7,106.5,119.9,106.4,119.4,106.3z"/>
				</g>
				<g>
					<path class="st1" d="M119.6,110c0.9,0,1.4-0.4,1.7-0.7c0.2-0.3-0.1-0.6-0.5-0.7s-3-0.2-3.7-0.2s-1.5,0.1-1.8,0.6
						C114.6,110.1,118.7,110,119.6,110z"/>
				</g>
				<g>
					<path class="st1" d="M121.4,110.8c-0.4-0.1-3.8-0.3-4.6-0.3c-0.8,0-1.9,0.1-2.3,0.6c-0.8,1,4.2,1,5.3,1c1.1,0,1.8-0.3,2.1-0.7
						C122.3,111.1,121.8,110.9,121.4,110.8z"/>
				</g>
				<g>
					<path class="st1" d="M121.7,131.1c0,0.8,1.1,3,3.1,3c0,0,0,0,0,0c1.5,0,2.3-0.7,2.7-1.2c0.5-0.7,0.8-1.6,0.6-2.4c0,0,0,0,0-0.1
						c-0.4-0.8-1.1-2.2-2.6-2.6c-0.1,0-0.2,0-0.3-0.1c0,0,0,0,0,0c-0.2,0-0.5-0.1-0.7-0.1c0,0,0,0-0.1,0c0,0-0.2,0-0.3,0
						c-0.3,0.1-0.9,0.2-1.5,0.7C122.2,128.9,121.7,129.7,121.7,131.1z"/>
				</g>
				<g>
					<path class="st1" d="M124.6,145.9c1.1,0,2-0.4,2.5-1.1c0.5-0.6,0.7-1.5,0.5-2.2c-0.1-0.6-0.6-1.3-1.4-1.8
						c-0.5-0.3-1-0.4-1.7-0.4c0,0,0,0,0,0h0c-0.1,0-2.6,0.1-2.6,3c0,0.5,0.5,1.6,1.5,2.3C123.8,145.8,124.2,145.9,124.6,145.9
						C124.6,145.9,124.6,145.9,124.6,145.9z"/>
				</g>
				<g>
					<g>
						<path class="st1" d="M145,160.5c-2.5-2.8-7.4-4.5-7.4-4.5s0-5.8,0-11.9c0.6-0.5,1.3-1.2,1.7-1.2c0.5-0.1,4.2,0,5.2,0
							c0.9,0,0.8-1.1,0.8-1.1s-0.4-11.7-0.5-13.8c-0.1-2.1-2.4-1.8-2.4-1.8s-3.9,0-4.8,0c-0.3,0-0.6-0.1-0.9-0.1
							c-1.3-3.3-3.8-6.7-6.7-8.4c-2.1-1.2-5.5-2-9.6-2.5l0.1-1.1c1.7,0.1,3.3,0.3,4.2,0.4c1.9,0.3,1.3-1.2,0.9-1.6s-2.1-3.8-2.6-6
							c-0.6-2.2,1.8-6.1,2.1-7c0.3-0.9-2.7-0.8-2.7-0.8l-1,0c-0.7-1.4-2.1-2.2-3.4-2.5c-1.4-0.4-2.8,0.4-3.1,0.9
							c-0.2,0.4-0.1,1.3-0.1,1.9l-1,0c-2.5,0-2,1.1-1.4,1.7c0.2,0.2,0.3,0.5,0.5,1c-1.5,0.1-4.8,0.2-8,0.2c-4.3,0-18.7,0.3-21.3,0.3
							s-6.6,0-6.9,1.8c-0.4,1.7,0,4.5,0.3,5.8c0.2,1-0.1,3.1-0.8,4.2c-1,0.1-1.9,0.1-2.5,0.2c-4.3,0.5-7.3,6.4-8.1,9.3
							c-1.9,7,0.7,12.6,1.4,16.8c0.6,4.2,3.4,3.6,4.3,3.3c0.7-0.2,2.8-0.5,3-0.4c0.1,0.1,0.6,0.9,0.8,1.7c0.3,1.1,0.3,2.4,0.4,2.4
							c0.1,0.1,1.5,0.1,1.7,0s0.6,4.1,0.6,4.5c0,0.4,0.5,0.7,0.5,0.2c0.1-0.5,0.4-4.7,0.6-4.7c0.2,0,1.8,0.2,2,0s0.6-3.8,1.1-4
							c0.6-0.2,4.1,1.2,4.8,0.7c1.3-1,0.2-1.4,1.1-3.8c1-2.7,6.1-4.7,11.1-4.6c5,0.1,9.6,3.1,11.6,5.4c1.9,2.2,1.9,6.7,1.9,6.7v4.1
							c0,0-0.1,1.3-0.2,1.4c-0.1,0.1-0.6,0.3-1.9,0.3c-8.6,0-41.1,0-44.7,0c-9.5,0-13,9.5-13.3,11.7c-0.2,2.2,1.4,2,4.5,2
							c3.1,0,71.6,0,71.6,0s14.6,0.3,16.1,0.3C149.2,168.3,148.3,164.2,145,160.5z M116.4,99.2c0.2-0.3,0.9-0.8,1.7-0.5
							c0.4,0.1,0.9,0.4,1.2,0.7l-3,0.1C116.3,99.4,116.4,99.3,116.4,99.2z M79.7,144.6c-0.1,0.8-0.7,1.4-1.6,1.4
							c-0.9,0-1.8-0.8-1.8-1.5c0-0.8,0.3-1.5,1.8-1.3C78.9,143.3,79.8,143.2,79.7,144.6z M96.3,125.3c-0.8-0.1-3.2-0.2-3.6-0.2
							c-0.4-0.1-2.1-0.5-1.1-0.8c1-0.4,5.2-0.5,5.5,0.1C97.2,124.7,97.1,125.4,96.3,125.3z M96.2,123.6c-1.1-0.1-4.1-0.3-4.6-0.4
							c-0.5-0.1-2.7-0.6-1.4-0.9c1.3-0.3,6.6-0.4,7,0.2C97.5,122.9,97.3,123.7,96.2,123.6z M96.2,121.5c-1.5-0.1-5.9-0.3-6.6-0.4
							c-0.7-0.1-3.8-0.6-2-1c1.9-0.4,9.4-0.5,10,0.3C97.9,120.8,97.7,121.6,96.2,121.5z M78.4,114.4c-0.1-0.4-0.3-0.8-0.3-1.2
							c-0.1-0.9-0.7-4.2-0.5-5.5c0.2-1.3-0.1-3.1,1.6-3.4c1.7-0.3,6-0.3,9.3-0.5c3.3-0.2,17.9-0.1,20.6-0.1c1.7,0,3.1,0.1,3.9,0.1
							c0.2,0.9,0.4,1.8,0.4,2.4c0.1,1.3-0.4,3.3-2,5.7c-1.5,2.4,1.7,1.8,3.5,1.9c0.1,0,0.2,0,0.3,0v0.9c-3.2-0.2-6.7-0.4-10.3-0.5
							C96.6,114,85.3,114.1,78.4,114.4z M113.4,125.9c-0.8-0.1-3.2-0.3-3.6-0.3c-0.4-0.1-2.1-0.5-1.1-0.8c1-0.3,5.2-0.4,5.5,0.2
							C114.4,125.3,114.2,126,113.4,125.9z M114,124.1c-1.1-0.1-4.1-0.4-4.6-0.5c-0.5-0.1-2.7-0.6-1.4-0.9c1.3-0.3,6.6-0.2,7,0.4
							C115.2,123.5,115,124.2,114,124.1z M113.9,122c-1.5-0.1-5.8-0.5-6.6-0.6c-0.7-0.1-3.8-0.7-2-1.1c1.9-0.3,9.4-0.2,10,0.5
							C115.7,121.4,115.5,122.2,113.9,122z M113.3,111.1c1.1-1.9,1.7-3.8,1.6-4.9c-0.1-1-0.2-3.2-0.5-3.9c-0.3-0.6-0.8-1.4,1-1.4
							h5.5c0,0,2.1-0.3,1.9,0.4c-0.2,0.7-2.1,3.9-1.7,5.6c0.4,1.7,1.8,4.5,2.1,4.8c0.3,0.3,0.7,1.5-0.6,1.3
							c-1.3-0.2-4.8-0.6-6.2-0.6C115.1,112.4,112.2,113,113.3,111.1z M119.5,115.2c-0.9-0.1-1.9-0.2-2.9-0.3v-1
							c0.9,0.1,1.9,0.1,3,0.2L119.5,115.2z M128.4,145.7c-0.8,1-2.1,1.6-3.5,1.6c0,0,0,0,0,0c-1.4,0-2.6-0.5-3.3-1.5
							c-0.5-0.7-0.8-1.8-0.8-2.4c0-4.2,3.8-4.3,3.8-4.3c0,0,0,0,0.1,0c2.7,0,4.2,2,4.5,3.3C129.4,143.6,129.1,144.8,128.4,145.7z
							 M128.5,133.7c-0.8,1.1-2.1,1.7-3.7,1.7c0,0,0,0,0,0c-2.8,0-4.3-3-4.3-4.2c0-4.5,4-4.7,4-4.7h0c2.7,0,4.5,2.1,4.8,3.6
							C129.6,131.3,129.3,132.7,128.5,133.7z M142.9,127.7c0.2,0.5-0.1,0.9-0.5,0.9c-0.4,0-2.7,0-3.3-0.2c-0.5-0.2-1.3-1-1.3-1
							S142.7,127.3,142.9,127.7z M142.5,130.1c1.5,0.3,1.1,1.1,1.2,1.7c0.1,0.5,0.2,7.7,0.1,8.9s-1.2,1-1.2,1s-2.7,0-4,0
							c-0.4,0-0.7-0.1-1-0.1c0-4.9,0-9.5,0-11.1c0-0.2,0-0.4,0-0.7C138.7,129.7,141.2,129.8,142.5,130.1z"/>
					</g>
				</g>
			</g>
		</g>
		<g>
			<g>
				<path class="st1" d="M69.1,186.1c-0.3,0-0.7,0-1.1,0c-0.6,1.3-0.9,2.2-1,2.6c-0.3,0-0.5-0.1-0.6-0.1c-0.1,0-0.3-0.1-0.5-0.1
					c-0.2-0.1-0.3-0.1-0.4-0.2c-0.1-0.1-0.1-0.2-0.1-0.4c0-0.2,0.1-0.6,0.4-1.3c0.3-0.7,0.7-1.6,1.1-2.8c0.5-1.2,0.9-2.3,1.2-3.4
					c0.4-0.1,0.7-0.1,0.9-0.1c0.7,0,1.1,0.3,1.3,0.9c0.6,1.9,1,3.1,1.3,3.8c0.6,1.7,1.1,2.7,1.3,3.2c-0.4,0.3-0.8,0.4-1.1,0.4
					c-0.5,0-0.8-0.2-0.9-0.5c-0.1-0.2-0.2-0.5-0.4-0.9c-0.2-0.4-0.3-0.8-0.4-1.1C69.6,186.1,69.2,186.1,69.1,186.1z M70,184.8
					c-0.1-0.5-0.3-1-0.5-1.7c-0.2-0.7-0.3-1.1-0.3-1.2c-0.5,1.8-0.8,2.8-0.9,3c0.4,0,0.7,0,0.9,0C69.6,184.9,69.8,184.9,70,184.8z"
					/>
				<path class="st1" d="M73.8,182.7c0.3-0.1,0.7-0.2,1-0.2c0.6,0,0.9,0.2,1,0.7c0.5-0.5,1.1-0.8,1.8-0.8c0.6,0,1,0.2,1.4,0.5
					c0.4,0.3,0.5,0.8,0.5,1.4c0,0,0,0.3,0,0.9c0,0.6,0,1,0,1.3c0,0.7,0.1,1.3,0.2,1.8c-0.4,0.1-0.7,0.2-1.1,0.2c-0.7,0-1-0.3-1-0.8
					c0-0.3,0-0.8,0-1.6c0-0.8,0-1.3,0-1.4c0-0.3-0.1-0.6-0.2-0.8s-0.3-0.3-0.5-0.3c-0.3,0-0.7,0.2-1.1,0.6c0,1.1,0,1.8,0,2.3
					c0,0.7,0,1.4,0.1,1.9c-0.3,0-0.5,0-0.7,0c-0.8,0-1.2-0.2-1.2-0.6c0,0,0-0.3,0-0.9c0-0.5,0-1.1,0-1.7
					C74,183.9,74,183.1,73.8,182.7z"/>
				<path class="st1" d="M85.4,180.2c0,0.3-0.1,0.6-0.4,0.9c-0.2-0.2-0.5-0.3-0.8-0.3c-0.4,0-0.6,0.1-0.7,0.3
					c-0.1,0.2-0.2,0.6-0.2,1v0.5c0.7,0,1.3,0,1.6-0.1c0.1,0.1,0.1,0.3,0.1,0.5c0,0.3-0.1,0.5-0.2,0.6c-0.2,0.1-0.4,0.2-0.7,0.2
					c-0.4,0-0.7,0-0.8,0v2.4c0,1,0.1,1.8,0.2,2.2c-0.3,0.1-0.6,0.1-0.9,0.1c-0.4,0-0.7,0-0.9-0.1c-0.2-0.1-0.2-0.3-0.2-0.5
					c0-0.1,0-0.6,0-1.5c0-0.9,0-1.8,0-2.5c-0.2,0-0.5,0-0.9,0.1c-0.1-0.2-0.1-0.4-0.1-0.6c0-0.5,0.3-0.7,1-0.7c0-0.4,0-0.7,0.1-1
					c0-0.3,0.1-0.5,0.2-0.8c0.1-0.3,0.3-0.5,0.4-0.7c0.2-0.2,0.4-0.3,0.8-0.4c0.3-0.1,0.7-0.2,1.1-0.2
					C85,179.6,85.4,179.8,85.4,180.2z"/>
				<path class="st1" d="M88.5,182.4c0.6,0,1.1,0.2,1.6,0.5c0.4,0.3,0.7,0.8,0.7,1.4c0,1.2-0.9,1.8-2.6,1.8c-0.2,0-0.4,0-0.8,0
					c0,0.5,0.1,0.8,0.4,1c0.2,0.2,0.5,0.3,0.9,0.3c0.6,0,1.1-0.2,1.4-0.6c0.2,0.1,0.3,0.2,0.5,0.4s0.2,0.3,0.2,0.5
					c0,0.2-0.1,0.4-0.4,0.6c-0.3,0.1-0.6,0.2-0.8,0.3c-0.3,0-0.5,0-0.8,0c-0.9,0-1.6-0.2-2.2-0.7c-0.6-0.5-0.9-1.3-0.9-2.3
					c0-0.7,0.2-1.2,0.5-1.7c0.3-0.5,0.7-0.8,1.2-1C87.5,182.5,88,182.4,88.5,182.4z M88.4,183.6c-0.3,0-0.6,0.1-0.8,0.4
					c-0.2,0.3-0.3,0.7-0.3,1.2c0.2,0,0.4,0,0.5,0c0.1,0,0.2,0,0.4-0.1c0.2,0,0.3-0.1,0.4-0.2c0.1-0.1,0.1-0.2,0.2-0.3
					c0.1-0.1,0.1-0.3,0.1-0.5c0-0.1,0-0.3-0.1-0.4C88.7,183.6,88.6,183.6,88.4,183.6z"/>
				<path class="st1" d="M92.9,182.5c0.3,0,0.6,0.1,0.7,0.2c0.2,0.1,0.3,0.3,0.3,0.6v0.2c0.2-0.3,0.5-0.5,0.8-0.7
					c0.3-0.2,0.6-0.3,0.9-0.3c0.2,0,0.4,0.1,0.6,0.2c0.1,0.1,0.2,0.3,0.2,0.4c0,0.3-0.1,0.7-0.4,1c-0.3-0.2-0.6-0.3-0.8-0.3
					c-0.4,0-0.8,0.3-1.3,0.8c0,0.5,0,1,0,1.4c0,1.2,0.1,2,0.2,2.4c-0.3,0.1-0.7,0.2-1,0.2c-0.4,0-0.7-0.1-0.8-0.2
					c-0.2-0.1-0.2-0.3-0.2-0.6c0-0.1,0-0.4,0-0.9c0-0.5,0-0.9,0-1.2c0-1.2,0-2.1-0.1-2.9C92.2,182.6,92.5,182.5,92.9,182.5z"/>
				<path class="st1" d="M98.1,186.2v-2.5c-0.4,0-0.8,0-1.1,0.1c-0.1-0.2-0.1-0.4-0.1-0.5c0-0.5,0.3-0.7,1-0.7h0.2
					c0-0.5,0-0.9-0.1-1.3c0.3-0.1,0.6-0.2,0.9-0.2c0.2,0,0.4,0,0.5,0c0.1,0,0.3,0.1,0.4,0.2c0.1,0.1,0.2,0.3,0.2,0.5
					c0,0.1,0,0.4,0,0.7c0.9,0,1.5,0,2-0.1c0.1,0.1,0.1,0.3,0.1,0.5c0,0.4-0.2,0.7-0.7,0.7c-0.3,0-0.8,0-1.4,0c0,0.8,0,1.6,0,2.4
					c0,0.2,0,0.3,0,0.4c0,0.1,0,0.2,0.1,0.4c0,0.1,0.1,0.3,0.2,0.3c0.1,0.1,0.2,0.1,0.4,0.1c0.4,0,0.7-0.1,1-0.4
					c0.3,0.2,0.5,0.5,0.5,0.7c0,0.2-0.1,0.4-0.4,0.6c-0.3,0.1-0.6,0.2-1,0.2c-0.9,0-1.5-0.2-1.9-0.6
					C98.3,187.5,98.1,186.9,98.1,186.2z"/>
				<path class="st1" d="M104,182c-0.3,0-0.6-0.1-0.8-0.3c-0.2-0.2-0.3-0.5-0.3-0.8c0-0.3,0.1-0.6,0.3-0.8c0.2-0.2,0.5-0.3,0.8-0.3
					c0.3,0,0.6,0.1,0.8,0.3c0.2,0.2,0.3,0.5,0.3,0.8c0,0.3-0.1,0.6-0.3,0.8C104.6,181.9,104.3,182,104,182z M104,182.5
					c0.3,0,0.6,0.1,0.7,0.2c0.2,0.1,0.3,0.3,0.3,0.6c0,0,0,0.4,0,1.1c0,0.7,0,1.2,0,1.5c0,1.2,0.1,2,0.2,2.4c-0.3,0.1-0.7,0.2-1,0.2
					c-0.4,0-0.7-0.1-0.8-0.2s-0.2-0.3-0.2-0.6c0-0.1,0-0.4,0-0.9c0-0.5,0-0.9,0-1.2c0-1.2,0-2.1-0.1-2.9
					C103.3,182.6,103.7,182.5,104,182.5z"/>
				<path class="st1" d="M109,187.2c-0.1,0-0.3,0-0.5,0c-0.1,0.2-0.1,0.4-0.1,0.5c0,0.2,0.3,0.2,0.8,0.2h1.4c0.5,0,0.9,0.1,1.3,0.4
					c0.4,0.3,0.5,0.6,0.5,1.2c0,0.6-0.4,1.1-1.1,1.5c-0.7,0.4-1.6,0.6-2.5,0.6c-0.9,0-1.6-0.1-2.1-0.4c-0.5-0.3-0.7-0.6-0.7-1
					c0-0.3,0.2-0.7,0.7-1.2c-0.2-0.1-0.3-0.3-0.3-0.6c0-0.1,0.1-0.3,0.3-0.6c0.2-0.3,0.4-0.6,0.6-0.8c-0.4-0.2-0.7-0.5-0.9-0.8
					c-0.2-0.4-0.3-0.8-0.3-1.3c0-0.7,0.3-1.2,0.8-1.7c0.5-0.4,1.2-0.7,2-0.7c0.7,0,1.4,0.2,1.9,0.6c0.4-0.5,0.8-0.7,1.3-0.7
					c0.2,0,0.4,0.1,0.5,0.2c0.1,0.1,0.2,0.3,0.2,0.6c0,0.2,0,0.4-0.1,0.6c-0.1,0-0.2,0-0.4,0c-0.3,0-0.6,0.1-0.8,0.2
					c0.1,0.3,0.2,0.6,0.2,1c0,0.7-0.3,1.3-0.8,1.8C110.4,186.9,109.8,187.2,109,187.2z M109.7,189.1H108c-0.1,0.2-0.1,0.4-0.1,0.6
					c0,0.4,0.4,0.6,1.1,0.6c0.5,0,0.9-0.1,1.2-0.2c0.3-0.1,0.4-0.3,0.4-0.5C110.6,189.3,110.3,189.1,109.7,189.1z M110,184.9
					c0-0.4-0.1-0.7-0.3-0.9c-0.2-0.2-0.4-0.4-0.7-0.4c-0.6,0-1,0.3-1,1c0,0.4,0.1,0.7,0.3,1c0.2,0.3,0.4,0.4,0.7,0.4
					c0.4,0,0.6-0.1,0.8-0.3C109.9,185.5,110,185.2,110,184.9z"/>
				<path class="st1" d="M119.7,188.3c-0.4,0.1-0.7,0.2-1,0.2c-0.3,0-0.5-0.1-0.7-0.2c-0.2-0.1-0.3-0.3-0.3-0.5
					c-0.6,0.5-1.2,0.8-1.9,0.8c-1.2,0-1.7-0.6-1.7-1.7c0,0,0-0.3,0-0.9c0-0.6,0-1,0-1.3c0-0.9-0.1-1.5-0.2-1.9
					c0.3-0.1,0.7-0.2,1-0.2c0.7,0,1.1,0.3,1.1,0.8c0,0.3,0,0.8,0,1.5c0,0.7,0,1.2,0,1.3c0,0.4,0.1,0.7,0.2,0.9
					c0.1,0.2,0.3,0.3,0.5,0.3c0.4,0,0.8-0.2,1.2-0.6c0-0.3,0-0.8,0-1.5c0-1,0-1.8-0.1-2.6c0.3-0.1,0.6-0.2,0.9-0.2
					c0.3,0,0.6,0,0.8,0.1c0.2,0.1,0.3,0.3,0.3,0.6c0,0.1,0,0.3,0,0.8c0,0.4,0,0.7,0,1v0.9C119.5,186.9,119.5,187.7,119.7,188.3z"/>
				<path class="st1" d="M120.9,182.7c0.3-0.1,0.7-0.2,1-0.2c0.6,0,0.9,0.2,1,0.7c0.5-0.5,1.1-0.8,1.8-0.8c0.6,0,1,0.2,1.4,0.5
					c0.4,0.3,0.5,0.8,0.5,1.4c0,0,0,0.3,0,0.9c0,0.6,0,1,0,1.3c0,0.7,0.1,1.3,0.2,1.8c-0.4,0.1-0.7,0.2-1.1,0.2c-0.7,0-1-0.3-1-0.8
					c0-0.3,0-0.8,0-1.6c0-0.8,0-1.3,0-1.4c0-0.3-0.1-0.6-0.2-0.8s-0.3-0.3-0.5-0.3c-0.3,0-0.7,0.2-1.1,0.6c0,1.1,0,1.8,0,2.3
					c0,0.7,0,1.4,0.1,1.9c-0.3,0-0.5,0-0.7,0c-0.8,0-1.2-0.2-1.2-0.6c0,0,0-0.3,0-0.9c0-0.5,0-1.1,0-1.7
					C121.1,183.9,121,183.1,120.9,182.7z"/>
				<path class="st1" d="M130.6,187.2c-0.1,0-0.3,0-0.5,0c-0.1,0.2-0.1,0.4-0.1,0.5c0,0.2,0.3,0.2,0.8,0.2h1.4
					c0.5,0,0.9,0.1,1.3,0.4c0.4,0.3,0.5,0.6,0.5,1.2c0,0.6-0.4,1.1-1.1,1.5s-1.6,0.6-2.5,0.6c-0.9,0-1.6-0.1-2.1-0.4
					c-0.5-0.3-0.7-0.6-0.7-1c0-0.3,0.2-0.7,0.7-1.2c-0.2-0.1-0.3-0.3-0.3-0.6c0-0.1,0.1-0.3,0.3-0.6c0.2-0.3,0.4-0.6,0.6-0.8
					c-0.4-0.2-0.7-0.5-0.9-0.8c-0.2-0.4-0.3-0.8-0.3-1.3c0-0.7,0.3-1.2,0.8-1.7c0.5-0.4,1.2-0.7,2-0.7c0.7,0,1.4,0.2,1.9,0.6
					c0.4-0.5,0.8-0.7,1.3-0.7c0.2,0,0.4,0.1,0.5,0.2c0.1,0.1,0.2,0.3,0.2,0.6c0,0.2,0,0.4-0.1,0.6c-0.1,0-0.2,0-0.4,0
					c-0.3,0-0.6,0.1-0.8,0.2c0.1,0.3,0.2,0.6,0.2,1c0,0.7-0.3,1.3-0.8,1.8C132,186.9,131.4,187.2,130.6,187.2z M131.3,189.1h-1.7
					c-0.1,0.2-0.1,0.4-0.1,0.6c0,0.4,0.4,0.6,1.1,0.6c0.5,0,0.9-0.1,1.2-0.2c0.3-0.1,0.4-0.3,0.4-0.5
					C132.2,189.3,131.9,189.1,131.3,189.1z M131.6,184.9c0-0.4-0.1-0.7-0.3-0.9c-0.2-0.2-0.4-0.4-0.7-0.4c-0.6,0-1,0.3-1,1
					c0,0.4,0.1,0.7,0.3,1c0.2,0.3,0.4,0.4,0.7,0.4c0.4,0,0.6-0.1,0.8-0.3C131.5,185.5,131.6,185.2,131.6,184.9z"/>
				<path class="st1" d="M84.9,200.3v-2.5c0-0.9,0-1.8-0.1-2.8c0.3-0.1,0.6-0.1,1-0.1c0.3,0,0.6,0.1,0.8,0.2s0.3,0.3,0.3,0.5
					c0,0,0,0.4,0,1c0,0.6,0,1.1,0,1.6c0.7-0.5,1.3-1,2-1.6c0.6-0.6,1.1-1.2,1.3-1.7c0.4,0.1,0.6,0.3,0.8,0.4
					c0.1,0.1,0.2,0.3,0.2,0.5c0,0.5-0.8,1.4-2.5,2.7c0.9,1.5,1.7,2.5,2.2,3.1c0.3,0.3,0.5,0.5,0.8,0.5c0,0,0.1,0,0.3,0
					c0.1,0.2,0.1,0.4,0.1,0.6c0,0.3-0.1,0.5-0.4,0.6s-0.5,0.2-0.9,0.2c-0.5,0-0.9-0.2-1.3-0.6c-0.6-0.5-1.3-1.6-2.2-3.2
					c0,0-0.1,0.1-0.2,0.1v1.1c0,0.9,0.1,1.7,0.3,2.4c-0.3,0.1-0.7,0.2-1.1,0.2c-0.2,0-0.3,0-0.4,0c-0.1,0-0.2-0.1-0.3-0.1
					c-0.1-0.1-0.2-0.2-0.3-0.3c-0.1-0.2-0.1-0.3-0.1-0.6c0-0.2,0-0.4,0-0.9C84.8,200.8,84.9,200.5,84.9,200.3z"/>
				<path class="st1" d="M98.3,203c-0.4,0.1-0.7,0.2-1,0.2c-0.3,0-0.5-0.1-0.7-0.2c-0.2-0.1-0.3-0.3-0.3-0.5
					c-0.6,0.5-1.2,0.8-1.9,0.8c-1.2,0-1.7-0.6-1.7-1.7c0,0,0-0.3,0-0.9c0-0.6,0-1,0-1.3c0-0.9-0.1-1.5-0.2-1.9
					c0.3-0.1,0.7-0.2,1-0.2c0.7,0,1.1,0.3,1.1,0.8c0,0.3,0,0.8,0,1.5c0,0.7,0,1.2,0,1.3c0,0.4,0.1,0.7,0.2,0.9
					c0.1,0.2,0.3,0.3,0.5,0.3c0.4,0,0.8-0.2,1.2-0.6c0-0.3,0-0.8,0-1.5c0-1,0-1.8-0.1-2.6c0.3-0.1,0.6-0.2,0.9-0.2
					c0.3,0,0.6,0,0.8,0.1c0.2,0.1,0.3,0.3,0.3,0.6c0,0.1,0,0.3,0,0.8c0,0.4,0,0.7,0,1v0.9C98.1,201.7,98.2,202.5,98.3,203z"/>
				<path class="st1" d="M100.6,197.3c0.3,0,0.6,0.1,0.7,0.2c0.2,0.1,0.3,0.3,0.3,0.6v0.2c0.2-0.3,0.5-0.5,0.8-0.7
					c0.3-0.2,0.6-0.3,0.9-0.3c0.2,0,0.4,0.1,0.6,0.2c0.1,0.1,0.2,0.3,0.2,0.4c0,0.3-0.1,0.7-0.4,1c-0.3-0.2-0.6-0.3-0.8-0.3
					c-0.4,0-0.8,0.3-1.3,0.8c0,0.5,0,1,0,1.4c0,1.2,0.1,2,0.2,2.4c-0.3,0.1-0.7,0.2-1,0.2c-0.4,0-0.7-0.1-0.8-0.2
					c-0.2-0.1-0.2-0.3-0.2-0.6c0-0.1,0-0.4,0-0.9c0-0.5,0-0.9,0-1.2c0-1.2,0-2.1-0.1-2.9C99.9,197.3,100.2,197.3,100.6,197.3z"/>
				<path class="st1" d="M108.1,199.2c-0.1-0.3-0.2-0.5-0.3-0.6c-0.2-0.1-0.3-0.2-0.5-0.2c-0.2,0-0.3,0-0.5,0.1
					c-0.1,0.1-0.2,0.2-0.2,0.4c0,0.2,0.1,0.4,0.3,0.5c0.2,0.1,0.4,0.2,0.7,0.3c0.3,0.1,0.5,0.2,0.8,0.3c0.3,0.1,0.5,0.3,0.7,0.5
					c0.2,0.2,0.3,0.5,0.3,0.9c0,0.6-0.2,1.1-0.7,1.4c-0.5,0.3-1.1,0.5-1.8,0.5c-0.2,0-0.4,0-0.6,0c-0.2,0-0.4-0.1-0.7-0.1
					c-0.3-0.1-0.5-0.2-0.6-0.3c-0.2-0.2-0.2-0.3-0.2-0.6c0-0.4,0.3-0.8,1-1c0.1,0.3,0.2,0.5,0.5,0.7c0.2,0.1,0.5,0.2,0.7,0.2
					c0.5,0,0.8-0.2,0.8-0.6c0-0.2-0.1-0.3-0.4-0.5c-0.3-0.1-0.6-0.2-1-0.3c-0.3-0.1-0.7-0.3-1-0.5c-0.3-0.3-0.4-0.6-0.4-1.1
					c0-0.6,0.2-1.1,0.7-1.4c0.5-0.4,1.1-0.5,1.7-0.5c0.3,0,0.6,0,0.9,0.1c0.3,0.1,0.6,0.2,0.8,0.4c0.2,0.2,0.4,0.4,0.4,0.6
					c0,0.2-0.1,0.4-0.3,0.6C108.8,199,108.5,199.1,108.1,199.2z"/>
				<path class="st1" d="M113.3,197.2c0.6,0,1.1,0.2,1.6,0.5c0.4,0.3,0.7,0.8,0.7,1.4c0,1.2-0.9,1.8-2.6,1.8c-0.2,0-0.4,0-0.8,0
					c0,0.5,0.1,0.8,0.4,1c0.2,0.2,0.5,0.3,0.9,0.3c0.6,0,1.1-0.2,1.4-0.6c0.2,0.1,0.3,0.2,0.5,0.4c0.1,0.2,0.2,0.3,0.2,0.5
					c0,0.2-0.1,0.4-0.4,0.6c-0.3,0.1-0.6,0.2-0.8,0.3c-0.3,0-0.5,0-0.8,0c-0.9,0-1.6-0.2-2.2-0.7c-0.6-0.5-0.9-1.3-0.9-2.3
					c0-0.7,0.2-1.2,0.5-1.7c0.3-0.5,0.7-0.8,1.2-1C112.3,197.3,112.8,197.2,113.3,197.2z M113.2,198.4c-0.3,0-0.6,0.1-0.8,0.4
					c-0.2,0.3-0.3,0.7-0.3,1.2c0.2,0,0.4,0,0.5,0c0.1,0,0.2,0,0.4-0.1c0.2,0,0.3-0.1,0.4-0.2c0.1-0.1,0.1-0.2,0.2-0.3
					c0.1-0.1,0.1-0.3,0.1-0.5c0-0.1,0-0.3-0.1-0.4C113.4,198.4,113.3,198.4,113.2,198.4z"/>
			</g>
		</g>
		<g>
			<g>
				<path class="st1" d="M46.3,55.4l-5.1-16.3h4.2l3,10.7l2.8-10.7h4.2L58,49.8l3.1-10.7h4.2l-5.2,16.3H56l-2.8-10.5l-2.8,10.5H46.3
					z"/>
				<path class="st1" d="M76.4,50.2l4.3,0.7c-0.6,1.6-1.4,2.8-2.6,3.6c-1.2,0.8-2.7,1.2-4.5,1.2c-2.8,0-4.9-0.9-6.3-2.8
					c-1.1-1.5-1.6-3.3-1.6-5.6c0-2.7,0.7-4.8,2.1-6.3c1.4-1.5,3.2-2.3,5.3-2.3c2.4,0,4.3,0.8,5.7,2.4c1.4,1.6,2.1,4,2,7.3H70.1
					c0,1.3,0.4,2.3,1,3c0.7,0.7,1.5,1.1,2.5,1.1c0.7,0,1.2-0.2,1.7-0.6C75.8,51.6,76.1,51,76.4,50.2z M76.6,45.9
					c0-1.2-0.4-2.2-1-2.8c-0.6-0.6-1.4-1-2.2-1c-0.9,0-1.7,0.3-2.3,1c-0.6,0.7-0.9,1.6-0.9,2.8H76.6z"/>
				<path class="st1" d="M88,55.4h-4.3V39.1h4v2.3c0.7-1.1,1.3-1.8,1.8-2.2c0.5-0.3,1.2-0.5,1.9-0.5c1,0,1.9,0.3,2.8,0.8l-1.3,3.8
					c-0.7-0.5-1.4-0.7-2-0.7c-0.6,0-1.1,0.2-1.5,0.5c-0.4,0.3-0.7,0.9-1,1.8c-0.2,0.9-0.4,2.7-0.4,5.5V55.4z"/>
				<path class="st1" d="M95.7,55.4V32.9h4.3v11.9l5-5.7h5.3l-5.6,5.9l6,10.3h-4.6l-4.1-7.3l-2,2.1v5.2H95.7z"/>
				<path class="st1" d="M117,32.9v8.3c1.4-1.6,3-2.4,5-2.4c1,0,1.9,0.2,2.7,0.6c0.8,0.4,1.4,0.8,1.8,1.4c0.4,0.6,0.7,1.2,0.8,1.9
					c0.1,0.7,0.2,1.8,0.2,3.2v9.5h-4.3v-8.6c0-1.7-0.1-2.8-0.2-3.2c-0.2-0.5-0.5-0.8-0.9-1.1c-0.4-0.3-0.9-0.4-1.6-0.4
					c-0.7,0-1.4,0.2-1.9,0.5c-0.6,0.3-1,0.9-1.2,1.6c-0.3,0.7-0.4,1.7-0.4,3.1v8.1h-4.3V32.9H117z"/>
				<path class="st1" d="M130.3,47c0-1.4,0.4-2.8,1.1-4.2c0.7-1.3,1.7-2.4,3-3.1c1.3-0.7,2.7-1.1,4.3-1.1c2.5,0,4.5,0.8,6.1,2.4
					c1.6,1.6,2.4,3.6,2.4,6.1c0,2.5-0.8,4.5-2.4,6.1c-1.6,1.6-3.6,2.4-6,2.4c-1.5,0-2.9-0.3-4.3-1c-1.4-0.7-2.4-1.7-3.1-3
					C130.6,50.5,130.3,48.9,130.3,47z M134.7,47.3c0,1.6,0.4,2.8,1.1,3.7s1.7,1.3,2.8,1.3c1.1,0,2.1-0.4,2.8-1.3s1.1-2.1,1.1-3.7
					c0-1.6-0.4-2.8-1.1-3.7c-0.8-0.9-1.7-1.3-2.8-1.3c-1.1,0-2.1,0.4-2.8,1.3C135.1,44.4,134.7,45.6,134.7,47.3z"/>
				<path class="st1" d="M147.9,39.1h2.4v-1.2c0-1.4,0.1-2.4,0.4-3.1c0.3-0.7,0.8-1.2,1.6-1.6c0.8-0.4,1.8-0.6,3-0.6
					c1.2,0,2.4,0.2,3.6,0.6l-0.6,3c-0.7-0.2-1.3-0.2-2-0.2c-0.6,0-1.1,0.1-1.3,0.4c-0.3,0.3-0.4,0.9-0.4,1.7v1.1h3.2v3.4h-3.2v12.9
					h-4.3V42.5h-2.4V39.1z"/>
				<path class="st1" d="M61.8,67.3v-4h4.3v4H61.8z M61.8,85.8V69.5h4.3v16.3H61.8z"/>
				<path class="st1" d="M84.2,74.4l-4.2,0.8c-0.1-0.8-0.5-1.5-1-1.9c-0.5-0.4-1.2-0.6-2-0.6c-1.1,0-1.9,0.4-2.6,1.1
					c-0.6,0.7-1,2-1,3.7c0,1.9,0.3,3.3,1,4.1c0.6,0.8,1.5,1.2,2.6,1.2c0.8,0,1.5-0.2,2-0.7c0.5-0.5,0.9-1.3,1.1-2.4l4.2,0.7
					c-0.4,1.9-1.3,3.4-2.5,4.4c-1.2,1-2.9,1.5-5,1.5c-2.4,0-4.3-0.8-5.7-2.3c-1.4-1.5-2.1-3.6-2.1-6.2c0-2.7,0.7-4.8,2.1-6.3
					c1.4-1.5,3.3-2.2,5.8-2.2c2,0,3.6,0.4,4.7,1.3C82.8,71.3,83.7,72.6,84.2,74.4z"/>
				<path class="st1" d="M91.2,63.4v8.3c1.4-1.6,3-2.4,5-2.4c1,0,1.9,0.2,2.7,0.6c0.8,0.4,1.4,0.8,1.8,1.4c0.4,0.6,0.7,1.2,0.8,1.9
					c0.1,0.7,0.2,1.8,0.2,3.2v9.5h-4.3v-8.6c0-1.7-0.1-2.8-0.2-3.2c-0.2-0.5-0.5-0.8-0.9-1.1c-0.4-0.3-0.9-0.4-1.6-0.4
					c-0.7,0-1.4,0.2-1.9,0.5c-0.6,0.3-1,0.9-1.2,1.6c-0.3,0.7-0.4,1.7-0.4,3.1v8.1h-4.3V63.4H91.2z"/>
				<path class="st1" d="M115,80.6l4.3,0.7c-0.6,1.6-1.4,2.8-2.6,3.6c-1.2,0.8-2.7,1.2-4.5,1.2c-2.8,0-4.9-0.9-6.3-2.8
					c-1.1-1.5-1.6-3.3-1.6-5.6c0-2.7,0.7-4.8,2.1-6.3c1.4-1.5,3.2-2.3,5.3-2.3c2.4,0,4.3,0.8,5.7,2.4c1.4,1.6,2.1,4,2,7.3h-10.8
					c0,1.3,0.4,2.3,1,3c0.7,0.7,1.5,1.1,2.5,1.1c0.7,0,1.2-0.2,1.7-0.6C114.4,82,114.8,81.5,115,80.6z M115.3,76.3
					c0-1.2-0.4-2.2-1-2.8c-0.6-0.6-1.4-1-2.2-1c-0.9,0-1.7,0.3-2.3,1c-0.6,0.7-0.9,1.6-0.9,2.8H115.3z"/>
				<path class="st1" d="M137.2,85.8h-4.3v-8.3c0-1.8-0.1-2.9-0.3-3.4c-0.2-0.5-0.5-0.9-0.9-1.2c-0.4-0.3-0.9-0.4-1.5-0.4
					c-0.7,0-1.4,0.2-2,0.6c-0.6,0.4-1,0.9-1.2,1.6c-0.2,0.7-0.3,1.9-0.3,3.7v7.4h-4.3V69.5h4v2.4c1.4-1.8,3.2-2.8,5.4-2.8
					c0.9,0,1.8,0.2,2.6,0.5c0.8,0.3,1.4,0.8,1.8,1.3c0.4,0.5,0.7,1.1,0.8,1.8c0.2,0.7,0.2,1.6,0.2,2.9V85.8z"/>
			</g>
		</g>
	</g>
</g>
</svg>
