<?xml version="1.0" encoding="utf-8"?>
<!-- Generator: Adobe Illustrator 24.2.0, SVG Export Plug-In . SVG Version: 6.00 Build 0)  -->
<svg version="1.1" id="Ebene_1" xmlns="http://www.w3.org/2000/svg" xmlns:xlink="http://www.w3.org/1999/xlink" x="0px" y="0px"
	 viewBox="0 0 390 20" style="enable-background:new 0 0 390 20;" xml:space="preserve">
<style type="text/css">
	.st0{fill:#504843;}
</style>
<rect x="376.8" y="7.6" class="st0" width="9.5" height="1"/>
<rect x="328.8" y="7.6" class="st0" width="12" height="1"/>
<rect x="352.8" y="7.6" class="st0" width="12" height="1"/>
<rect x="304.8" y="7.6" class="st0" width="12" height="1"/>
<rect x="256.8" y="7.6" class="st0" width="12" height="1"/>
<rect x="280.8" y="7.6" class="st0" width="12" height="1"/>
<path class="st0" d="M82.2,9.5c-23.6,0.4-53.4,0.9-76.9,1.4c0,0.1,0,0.4,0,0.5C37.1,12,73.9,12.6,105.8,13V9.2L82.2,9.5z"/>
<path class="st0" d="M212.6,12c0.7-1.5-0.6-3.3-2.2-3.3c0,0-0.9,0-2.3,0c-0.6,0.3-1.1,0.6-1.6,1.2c1.8-0.2,2.1,2.3,0.3,2.5
	c-0.8,0-1.9,0-2.7,0h-7.6c-0.2,0-0.3,0-0.4-0.1c-1.2-0.5-0.9-2.4,0.4-2.4h7.6c0.1-0.4,0.4-0.8,0.7-1.2c-14.4,0-41.3,0.1-48,0v4.8
	c7.5-0.1,46.1,0,53.6,0C211.3,13.5,212.2,12.9,212.6,12z"/>
<path class="st0" d="M240.2,7.5c-6.9-0.2-14.2-0.3-20.5,3c-3-3.6-8.8-5.2-13-2.8c-1.5,0.8-2.9,2.7-2.3,4.2h1.1
	c-0.7-1.2,0.4-2.6,1.5-3.2c3.7-2.4,9.3-0.7,11.8,2.3c-3.3,1.8-7.1,4.1-11,2.9h-2c4.3,3.2,9.6,0.1,13.5-2.1c0.7,1.2,0.9,2.7-0.5,4.4
	l0.8,0.6c1.4-1.7,1.6-3.7,0.6-5.5c8.9-4.4,18.2-2.5,28-2.8v-1C245.1,7.6,242.5,7.6,240.2,7.5z"/>
</svg>
